<svg width="35" height="35" viewBox="0 0 35 35" fill="none" xmlns="http://www.w3.org/2000/svg">
<path d="M10.1786 17.1709C11.0714 23.4111 6.78571 24.1243 6.78571 24.1243C6.78571 24.1243 6.60714 24.1243 6.42857 24.4809C6.25 24.8374 6.25 29.8295 6.42857 30.3644C6.60714 30.8993 6.84507 31.3945 7.5 31.6125C7.96311 31.7666 8.57143 31.7907 8.75 31.6125C8.92857 31.4342 8.57143 29.1164 9.46429 28.0466C10.3571 26.9769 11.25 26.6203 13.0357 26.4421C14.8214 26.2638 28.2143 26.4421 30 26.4421C31.7857 26.4421 35 27.1552 35 31.0776C35 35 31.9643 35 30.5357 35H10C8.92857 35 5.9615 34.774 4.46429 33.0388C3.48383 31.9025 3.21429 31.0776 3.03571 29.473C2.85714 27.8684 3.39286 19.1321 3.03571 17.5275C2.67857 15.9229 1.78571 13.0703 1.78571 13.0703C1.78571 13.0703 0 6.83011 0 3.79914C0 0.768182 0.913636 0.406451 2.67857 0.0550403C4.46196 -0.300045 5.89286 1.12478 6.60714 2.55111C7.32143 3.97743 9.28571 10.9308 10.1786 17.1709Z" fill="#4C8394"/>
</svg>
