<svg width="38" height="38" viewBox="0 0 38 38" fill="none" xmlns="http://www.w3.org/2000/svg">
<path d="M35.4925 38.0002L24.2076 26.7154C23.312 27.4319 22.2821 27.9991 21.1177 28.4171C19.9534 28.835 18.7145 29.044 17.4009 29.044C14.1468 29.044 11.3931 27.9167 9.13969 25.6621C6.8863 23.4076 5.75901 20.6538 5.75781 17.4009C5.75662 14.148 6.88391 11.3943 9.13969 9.13968C11.3955 6.8851 14.1492 5.75781 17.4009 5.75781C20.6526 5.75781 23.407 6.8851 25.6639 9.13968C27.9209 11.3943 29.0476 14.148 29.044 17.4009C29.044 18.7145 28.835 19.9534 28.4171 21.1177C27.9991 22.2821 27.4319 23.312 26.7154 24.2076L38.0002 35.4925L35.4925 38.0002ZM17.4009 25.4615C19.64 25.4615 21.5435 24.6781 23.1114 23.1114C24.6793 21.5447 25.4627 19.6412 25.4615 17.4009C25.4603 15.1607 24.677 13.2578 23.1114 11.6922C21.5459 10.1267 19.6424 9.34269 17.4009 9.3403C15.1595 9.33792 13.2566 10.1219 11.6922 11.6922C10.1279 13.2625 9.34389 15.1654 9.34031 17.4009C9.33672 19.6364 10.1207 21.5399 11.6922 23.1114C13.2637 24.6829 15.1666 25.4663 17.4009 25.4615Z" fill="#61615C"/>
</svg>
