<svg width="35" height="33" viewBox="0 0 35 33" fill="none" xmlns="http://www.w3.org/2000/svg">
<path d="M21.2109 10.7549C21.5781 11.5968 22.3776 12.17 23.293 12.2471L32.7568 13.043L25.6562 19.0117C24.9322 19.6204 24.6135 20.5858 24.833 21.5059L26.9619 30.4307L18.7656 25.6367L18.6182 25.5566C17.9168 25.2073 17.091 25.2073 16.3896 25.5566L16.2422 25.6367L8.04492 30.4307L10.1748 21.5059C10.3806 20.6432 10.1134 19.7408 9.48242 19.1299L9.35156 19.0117L2.25 13.043L11.7148 12.2471C12.6302 12.17 13.4297 11.5968 13.7969 10.7549L17.5039 2.25L21.2109 10.7549Z" stroke="#61615C" stroke-width="3"/>
</svg>
