<svg width="33" height="36" viewBox="0 0 33 36" fill="none" xmlns="http://www.w3.org/2000/svg">
<path d="M33 34.0783C33 34.588 32.8068 35.0768 32.463 35.4372C32.1192 35.7975 31.6529 36 31.1667 36H1.83333C1.3471 36 0.880788 35.7975 0.536971 35.4372C0.193155 35.0768 4.41302e-07 34.588 4.41302e-07 34.0783V13.8816C-0.000193387 13.5887 0.0634648 13.2997 0.186113 13.0366C0.308761 12.7735 0.487154 12.5432 0.707667 12.3634L15.3743 0.404885C15.6962 0.142472 16.0923 0 16.5 0C16.9077 0 17.3038 0.142472 17.6257 0.404885L32.2923 12.3634C32.5128 12.5432 32.6912 12.7735 32.8139 13.0366C32.9365 13.2997 33.0002 13.5887 33 13.8816V34.0783Z" fill="#61615C"/>
</svg>
